<svg width="161" height="154" viewBox="0 0 161 154" fill="none" xmlns="http://www.w3.org/2000/svg">
<path d="M156.61 89.0768L147.113 83.8673C147.369 81.6108 147.504 79.3199 147.504 76.9995C147.504 74.6792 147.369 72.3883 147.113 70.1318L156.61 64.9223C158.64 63.809 160.091 62.0109 160.698 59.8594C161.304 57.7079 160.992 55.4609 159.82 53.533L141.551 23.4661C139.987 20.8933 137.073 19.2953 133.942 19.2953C132.41 19.2953 130.897 19.6822 129.564 20.414L120.04 25.638C116.169 22.9411 111.984 20.629 107.547 18.7612V8.33767C107.546 3.74048 103.609 0 98.7709 0H62.2289C57.3903 0 53.4539 3.74048 53.4539 8.33767V18.7617C49.0163 20.6294 44.8313 22.9411 40.9601 25.6389L31.4362 20.4145C30.103 19.6831 28.5892 19.2962 27.0583 19.2962C23.9278 19.2962 21.0131 20.8937 19.4488 23.4666L1.17993 53.5334C0.00767486 55.4614 -0.303848 57.7088 0.302526 59.8599C0.909377 62.0114 2.36077 63.8094 4.39043 64.9228L13.8871 70.1323C13.6308 72.3888 13.496 74.6797 13.496 77C13.496 79.3203 13.6308 81.6108 13.8871 83.8677L4.39043 89.0772C2.36077 90.1906 0.909377 91.9886 0.302526 94.1401C-0.303848 96.2916 0.00767486 98.5391 1.17993 100.467L19.4488 130.533C21.0126 133.106 23.9273 134.704 27.0583 134.704C28.5897 134.704 30.1035 134.317 31.4362 133.586L40.9601 128.362C44.8313 131.059 49.0163 133.371 53.4539 135.239V145.663C53.4539 147.89 54.3665 149.983 56.0242 151.558C57.6823 153.132 59.8853 154 62.2284 154H98.7705C103.608 154 107.546 150.26 107.546 145.663V135.238C111.983 133.371 116.169 131.058 120.039 128.361L129.563 133.585C130.896 134.317 132.41 134.703 133.941 134.703C137.071 134.703 139.986 133.106 141.55 130.533L159.819 100.466C160.991 98.5382 161.303 96.2907 160.697 94.1397C160.09 91.9882 158.639 90.1901 156.61 89.0768ZM80.4997 122.257C54.1922 122.257 32.8662 101.994 32.8662 77C32.8662 52.006 54.1922 31.7432 80.4997 31.7432C106.808 31.7432 128.133 52.006 128.133 77C128.133 101.994 106.808 122.257 80.4997 122.257Z" fill="#0B0247"/>
<path d="M113.34 53.3108C113.059 53.2429 112.76 53.3207 112.555 53.5162L103.953 61.714C103.437 61.5149 102.136 60.8365 99.7288 58.5569C97.3218 56.2773 96.604 55.0436 96.393 54.554L104.994 46.3566C105.199 46.1611 105.28 45.8769 105.208 45.6098C105.136 45.3424 104.92 45.131 104.641 45.0541C103.4 44.712 102.115 44.5386 100.821 44.5386C97.1651 44.5386 93.7303 45.8932 91.15 48.3524C88.5739 50.8076 87.1583 54.0684 87.163 57.5346C87.1659 59.3209 87.5489 61.0501 88.27 62.6432L77.8445 72.549L67.167 62.4042C67.1575 62.387 67.1508 62.3685 67.1403 62.3513L62.2574 54.401C62.1731 54.2639 62.0588 54.1462 61.9211 54.0552L53.6877 48.6271C53.2328 48.3271 52.6164 48.38 52.2253 48.7516L48.5561 52.2373C48.1646 52.6093 48.1093 53.1944 48.4251 53.6271L54.1378 61.4497C54.2331 61.5801 54.3574 61.6892 54.5017 61.7693L62.8714 66.4072C62.8876 66.4162 62.9052 66.4189 62.9214 66.4271L73.6047 76.5769L65.5698 84.2108C63.8874 83.5238 62.0607 83.1599 60.1753 83.1599C56.519 83.1599 53.0841 84.5144 50.5034 86.9742C46.9794 90.3313 45.6648 95.2467 47.0728 99.8013C47.1547 100.066 47.3777 100.271 47.6596 100.339C47.9412 100.407 48.2398 100.329 48.4451 100.133L57.0458 91.9357C57.5617 92.1343 58.8626 92.8132 61.27 95.0923C63.6769 97.3724 64.3942 98.6056 64.6043 99.0953L56.0036 107.293C55.7983 107.489 55.7168 107.773 55.7897 108.04C55.8621 108.307 56.0779 108.519 56.357 108.596C57.5969 108.937 58.8821 109.111 60.1763 109.111C63.8322 109.111 67.267 107.756 69.8483 105.296C72.4243 102.842 73.8395 99.5809 73.8342 96.1147C73.8314 94.3284 73.4484 92.5987 72.7272 91.0061L80.7597 83.3744L84.1636 86.608L81.8429 88.8129C81.337 89.2927 81.0583 89.9299 81.0583 90.6078C81.0579 91.2862 81.3365 91.9239 81.8419 92.4032L98.234 107.977C98.7375 108.457 99.4077 108.721 100.122 108.721C100.835 108.721 101.507 108.457 102.013 107.977L110.892 99.5388C111.397 99.0595 111.675 98.4219 111.676 97.7435C111.676 97.0651 111.398 96.4279 110.893 95.9486L94.5019 80.3762C93.9975 79.8969 93.3268 79.6326 92.6128 79.6326C91.8988 79.6326 91.2276 79.8969 90.7232 80.3771L88.4039 82.5806L85 79.347L95.4275 69.4394C97.1099 70.1268 98.9361 70.4903 100.822 70.4907H100.823C104.478 70.4907 107.913 69.1357 110.493 66.6756C114.017 63.3198 115.332 58.4049 113.926 53.8489C113.845 53.5832 113.622 53.3786 113.34 53.3108ZM92.4313 85.9165C93.0153 85.3607 93.9627 85.3607 94.5477 85.9165L105.062 95.9074C105.647 96.4623 105.647 97.362 105.062 97.9173C104.477 98.4717 103.532 98.4717 102.948 97.9173L92.4313 87.9264C91.8497 87.3706 91.8497 86.4709 92.4313 85.9165ZM87.6713 90.4363C88.2572 89.8824 89.2056 89.8824 89.79 90.4372L100.305 100.429C100.889 100.983 100.889 101.883 100.305 102.438C99.7192 102.993 98.7718 102.993 98.1892 102.438L87.6713 92.4462C87.0887 91.8922 87.0887 90.9925 87.6713 90.4363Z" fill="#0B0247"/>
</svg>
