<svg width="101" height="19" viewBox="0 0 101 19" fill="none" xmlns="http://www.w3.org/2000/svg">
<path d="M8.60156 13.5117C8.60156 13.207 8.57422 12.9297 8.51953 12.6797C8.46484 12.4297 8.34766 12.1992 8.16797 11.9883C7.99609 11.7773 7.74219 11.5664 7.40625 11.3555C7.07812 11.1445 6.64844 10.9258 6.11719 10.6992C5.48438 10.4336 4.87109 10.1523 4.27734 9.85547C3.68359 9.55078 3.14844 9.19922 2.67188 8.80078C2.19531 8.40234 1.81641 7.93359 1.53516 7.39453C1.26172 6.84766 1.125 6.20703 1.125 5.47266C1.125 4.75391 1.25391 4.10156 1.51172 3.51562C1.77734 2.92969 2.15234 2.42969 2.63672 2.01562C3.12109 1.59375 3.6875 1.26953 4.33594 1.04297C4.99219 0.816406 5.72266 0.703125 6.52734 0.703125C7.62109 0.703125 8.56641 0.929687 9.36328 1.38281C10.168 1.83594 10.7891 2.45703 11.2266 3.24609C11.6719 4.03516 11.8945 4.94141 11.8945 5.96484H8.47266C8.47266 5.48047 8.40234 5.05469 8.26172 4.6875C8.12891 4.3125 7.91406 4.01953 7.61719 3.80859C7.32031 3.59766 6.9375 3.49219 6.46875 3.49219C6.03125 3.49219 5.66797 3.58203 5.37891 3.76172C5.09766 3.93359 4.88672 4.17188 4.74609 4.47656C4.61328 4.77344 4.54688 5.10938 4.54688 5.48438C4.54688 5.76562 4.61328 6.01953 4.74609 6.24609C4.88672 6.46484 5.07812 6.66406 5.32031 6.84375C5.5625 7.01562 5.84766 7.18359 6.17578 7.34766C6.51172 7.51172 6.87891 7.67188 7.27734 7.82812C8.05078 8.13281 8.73438 8.46875 9.32812 8.83594C9.92188 9.19531 10.418 9.60156 10.8164 10.0547C11.2148 10.5 11.5156 11.0039 11.7188 11.5664C11.9219 12.1289 12.0234 12.7695 12.0234 13.4883C12.0234 14.1992 11.8984 14.8477 11.6484 15.4336C11.4062 16.0117 11.0508 16.5117 10.582 16.9336C10.1133 17.3477 9.54688 17.668 8.88281 17.8945C8.22656 18.1211 7.49219 18.2344 6.67969 18.2344C5.89062 18.2344 5.14453 18.125 4.44141 17.9062C3.73828 17.6797 3.11719 17.3398 2.57812 16.8867C2.04688 16.4258 1.62891 15.8438 1.32422 15.1406C1.01953 14.4297 0.867188 13.5898 0.867188 12.6211H4.30078C4.30078 13.1367 4.35156 13.5781 4.45312 13.9453C4.55469 14.3047 4.71094 14.5938 4.92188 14.8125C5.13281 15.0234 5.39062 15.1836 5.69531 15.293C6.00781 15.3945 6.36328 15.4453 6.76172 15.4453C7.21484 15.4453 7.57422 15.3594 7.83984 15.1875C8.11328 15.0156 8.30859 14.7852 8.42578 14.4961C8.54297 14.207 8.60156 13.8789 8.60156 13.5117ZM24.1289 15.1641V18H16.7109V15.1641H24.1289ZM17.7773 0.9375V18H14.3438V0.9375H17.7773ZM23.1328 7.85156V10.6055H16.7109V7.85156H23.1328ZM24.1055 0.9375V3.78516H16.7109V0.9375H24.1055ZM26.1445 0.9375H31.6172C32.7578 0.9375 33.7305 1.13281 34.5352 1.52344C35.3398 1.91406 35.957 2.49219 36.3867 3.25781C36.8164 4.02344 37.0312 4.96875 37.0312 6.09375C37.0312 7.01562 36.9062 7.80469 36.6562 8.46094C36.4062 9.10938 36.0508 9.65234 35.5898 10.0898C35.1289 10.5195 34.5781 10.8633 33.9375 11.1211L32.8945 11.7422H28.4531L28.4414 8.89453H31.5234C31.9922 8.89453 32.3789 8.79297 32.6836 8.58984C32.9961 8.37891 33.2266 8.08594 33.375 7.71094C33.5312 7.32812 33.6094 6.88281 33.6094 6.375C33.6094 5.83594 33.5391 5.375 33.3984 4.99219C33.2656 4.60156 33.0508 4.30469 32.7539 4.10156C32.4648 3.89062 32.0859 3.78516 31.6172 3.78516H29.5781V18H26.1445V0.9375ZM33.8906 18L30.7617 10.3945L34.3594 10.3828L37.5586 17.8359V18H33.8906ZM44.4961 14.3555L47.7305 0.9375H51.4336L46.4883 18H43.9922L44.4961 14.3555ZM41.7305 0.9375L44.9531 14.3555L45.4805 18H42.9727L38.0625 0.9375H41.7305ZM56.625 0.9375V18H53.2148V0.9375H56.625ZM71.1797 0.9375V18H67.7695V0.9375H71.1797ZM75.4219 0.9375V3.78516H63.6094V0.9375H75.4219ZM87.1992 15.1641V18H79.7812V15.1641H87.1992ZM80.8477 0.9375V18H77.4141V0.9375H80.8477ZM86.2031 7.85156V10.6055H79.7812V7.85156H86.2031ZM87.1758 0.9375V3.78516H79.7812V0.9375H87.1758ZM97.3359 12.3164H100.746C100.699 13.5977 100.441 14.6797 99.9727 15.5625C99.5039 16.4375 98.8359 17.1016 97.9688 17.5547C97.1094 18.0078 96.0703 18.2344 94.8516 18.2344C93.9062 18.2344 93.0664 18.0781 92.332 17.7656C91.5977 17.4453 90.9727 16.9766 90.457 16.3594C89.9414 15.7422 89.5508 14.9805 89.2852 14.0742C89.0273 13.1602 88.8984 12.1094 88.8984 10.9219V8.02734C88.8984 6.83984 89.0352 5.78906 89.3086 4.875C89.5898 3.96094 89.9883 3.19531 90.5039 2.57812C91.0273 1.95313 91.6562 1.48438 92.3906 1.17188C93.1328 0.851563 93.9688 0.691406 94.8984 0.691406C96.1406 0.691406 97.1797 0.925781 98.0156 1.39453C98.8516 1.86328 99.4961 2.54687 99.9492 3.44531C100.41 4.33594 100.688 5.42578 100.781 6.71484H97.3594C97.3359 5.90234 97.2422 5.26562 97.0781 4.80469C96.9219 4.33594 96.6719 4.00781 96.3281 3.82031C95.9844 3.625 95.5078 3.52734 94.8984 3.52734C94.4453 3.52734 94.0547 3.60938 93.7266 3.77344C93.3984 3.92969 93.1289 4.18359 92.918 4.53516C92.707 4.88672 92.5508 5.34766 92.4492 5.91797C92.3555 6.48828 92.3086 7.18359 92.3086 8.00391V10.9219C92.3086 11.7266 92.3516 12.4141 92.4375 12.9844C92.5234 13.5469 92.6602 14.0078 92.8477 14.3672C93.0352 14.7266 93.2891 14.9883 93.6094 15.1523C93.9375 15.3164 94.3516 15.3984 94.8516 15.3984C95.4297 15.3984 95.8945 15.3125 96.2461 15.1406C96.6055 14.9688 96.8711 14.6602 97.043 14.2148C97.2148 13.7695 97.3125 13.1367 97.3359 12.3164Z" fill="#0892E1"/>
</svg>
