<svg width="89" height="14" viewBox="0 0 89 14" fill="none" xmlns="http://www.w3.org/2000/svg">
<path d="M5.39355 8.48438C5.43001 8.18359 5.40951 7.91927 5.33203 7.69141C5.25456 7.46354 5.13379 7.26758 4.96973 7.10352C4.80566 6.93945 4.6097 6.7959 4.38184 6.67285C4.15853 6.54525 3.91699 6.43132 3.65723 6.33105C3.34277 6.19434 3.04655 6.04622 2.76855 5.88672C2.49056 5.72266 2.24902 5.53125 2.04395 5.3125C1.83887 5.09375 1.68392 4.84082 1.5791 4.55371C1.47428 4.2666 1.4401 3.93164 1.47656 3.54883C1.50391 3.14323 1.60645 2.77637 1.78418 2.44824C1.96191 2.12012 2.19206 1.83984 2.47461 1.60742C2.75716 1.37044 3.07389 1.19271 3.4248 1.07422C3.78027 0.955729 4.15625 0.901042 4.55273 0.910156C5.10872 0.923828 5.57129 1.06966 5.94043 1.34766C6.31413 1.62565 6.58301 1.98796 6.74707 2.43457C6.91113 2.87663 6.9681 3.35742 6.91797 3.87695L6.15234 3.88379C6.1888 3.50098 6.1569 3.14095 6.05664 2.80371C5.96094 2.46647 5.78548 2.19076 5.53027 1.97656C5.27962 1.76237 4.93783 1.65072 4.50488 1.6416C4.11751 1.63249 3.76204 1.7054 3.43848 1.86035C3.11947 2.01074 2.85286 2.22949 2.63867 2.5166C2.42904 2.80371 2.30143 3.13867 2.25586 3.52148C2.22396 3.80859 2.24674 4.05924 2.32422 4.27344C2.40625 4.48307 2.5293 4.66764 2.69336 4.82715C2.85742 4.98665 3.04655 5.12793 3.26074 5.25098C3.47949 5.36947 3.70964 5.47428 3.95117 5.56543C4.28841 5.69759 4.59831 5.85026 4.88086 6.02344C5.16797 6.19206 5.41406 6.39258 5.61914 6.625C5.82422 6.85742 5.97689 7.12402 6.07715 7.4248C6.17741 7.72559 6.20931 8.07422 6.17285 8.4707C6.13639 8.88997 6.02702 9.26823 5.84473 9.60547C5.66699 9.93815 5.43229 10.2207 5.14062 10.4531C4.85352 10.681 4.52767 10.8564 4.16309 10.9795C3.7985 11.098 3.41113 11.1527 3.00098 11.1436C2.57259 11.1253 2.1875 11.0433 1.8457 10.8975C1.50846 10.7471 1.22591 10.5352 0.998047 10.2617C0.770182 9.98828 0.603841 9.67155 0.499023 9.31152C0.398763 8.9515 0.369141 8.56185 0.410156 8.14258L1.18945 8.14941C1.15755 8.46387 1.1735 8.75781 1.2373 9.03125C1.30566 9.30469 1.41732 9.54395 1.57227 9.74902C1.72721 9.94954 1.92773 10.1068 2.17383 10.2207C2.42448 10.3346 2.71615 10.3984 3.04883 10.4121C3.44531 10.4212 3.81217 10.3483 4.14941 10.1934C4.48665 10.0384 4.76693 9.81738 4.99023 9.53027C5.21354 9.23861 5.34798 8.88997 5.39355 8.48438ZM7.62207 7.68457L7.71094 6.92578C7.77018 6.4974 7.875 6.07585 8.02539 5.66113C8.17578 5.24642 8.37858 4.87044 8.63379 4.5332C8.889 4.19141 9.20117 3.92253 9.57031 3.72656C9.93945 3.5306 10.3656 3.44173 10.8486 3.45996C11.3226 3.47363 11.7077 3.58757 12.0039 3.80176C12.3001 4.01139 12.5257 4.28711 12.6807 4.62891C12.8356 4.9707 12.9336 5.33984 12.9746 5.73633C13.0202 6.13281 13.0202 6.52702 12.9746 6.91895L12.8789 7.68457C12.8197 8.1084 12.7126 8.52995 12.5576 8.94922C12.4072 9.36393 12.2044 9.73991 11.9492 10.0771C11.694 10.4144 11.3818 10.681 11.0127 10.877C10.6481 11.0729 10.2197 11.1641 9.72754 11.1504C9.25814 11.1367 8.87533 11.0228 8.5791 10.8086C8.28288 10.5944 8.05729 10.3164 7.90234 9.97461C7.75195 9.63281 7.65397 9.26367 7.6084 8.86719C7.56738 8.4707 7.57194 8.0765 7.62207 7.68457ZM8.47656 6.91895L8.37402 7.70508C8.34668 7.97396 8.33757 8.26562 8.34668 8.58008C8.36035 8.88997 8.41276 9.18392 8.50391 9.46191C8.59505 9.73535 8.74316 9.96322 8.94824 10.1455C9.15332 10.3232 9.43132 10.4189 9.78223 10.4326C10.165 10.4508 10.4954 10.3779 10.7734 10.2139C11.0514 10.0498 11.2816 9.83105 11.4639 9.55762C11.6462 9.28418 11.7897 8.9834 11.8945 8.65527C12.0039 8.32715 12.0791 8.00358 12.1201 7.68457L12.2227 6.91211C12.2546 6.63867 12.2614 6.34928 12.2432 6.04395C12.2295 5.73405 12.1771 5.4401 12.0859 5.16211C11.9948 4.87956 11.8444 4.64714 11.6348 4.46484C11.4297 4.28255 11.1517 4.18457 10.8008 4.1709C10.4271 4.15723 10.1035 4.23242 9.83008 4.39648C9.5612 4.56055 9.33105 4.78158 9.13965 5.05957C8.9528 5.33757 8.80469 5.63835 8.69531 5.96191C8.58594 6.28548 8.51302 6.60449 8.47656 6.91895ZM16.625 0.5L14.7998 11H14.0479L15.873 0.5H16.625ZM20.9795 9.26367L21.957 3.60352H22.709L21.4238 11H20.6924L20.9795 9.26367ZM21.3555 7.91016L21.6973 7.89648C21.6335 8.29297 21.54 8.68717 21.417 9.0791C21.2939 9.47103 21.1253 9.8265 20.9111 10.1455C20.6969 10.46 20.4235 10.7106 20.0908 10.8975C19.7627 11.0798 19.3639 11.1618 18.8945 11.1436C18.5117 11.139 18.2064 11.0479 17.9785 10.8701C17.7507 10.6924 17.582 10.4645 17.4727 10.1865C17.3633 9.90853 17.2995 9.60775 17.2812 9.28418C17.263 8.96061 17.2699 8.64616 17.3018 8.34082L18.0947 3.60352H18.8535L18.0605 8.36133C18.0469 8.56185 18.0378 8.77832 18.0332 9.01074C18.0332 9.23861 18.0628 9.45736 18.1221 9.66699C18.1859 9.87663 18.2907 10.0498 18.4365 10.1865C18.5824 10.3232 18.7852 10.3984 19.0449 10.4121C19.5417 10.4303 19.945 10.3164 20.2549 10.0703C20.5648 9.82422 20.8063 9.50749 20.9795 9.12012C21.1527 8.73275 21.278 8.32943 21.3555 7.91016ZM25.7646 10.4326C26.1383 10.4463 26.4505 10.3802 26.7012 10.2344C26.9564 10.084 27.1615 9.87663 27.3164 9.6123C27.4759 9.34342 27.5967 9.04264 27.6787 8.70996H28.376C28.2985 9.16569 28.1436 9.58268 27.9111 9.96094C27.6787 10.3346 27.3779 10.6309 27.0088 10.8496C26.6396 11.0638 26.2113 11.1641 25.7236 11.1504C25.236 11.1367 24.8441 11.0296 24.5479 10.8291C24.2516 10.624 24.0283 10.3551 23.8779 10.0225C23.7321 9.68978 23.6432 9.3252 23.6113 8.92871C23.584 8.52767 23.5931 8.12663 23.6387 7.72559L23.748 6.87793C23.8073 6.44043 23.9076 6.01432 24.0488 5.59961C24.1901 5.1849 24.3838 4.81576 24.6299 4.49219C24.876 4.16406 25.1813 3.90658 25.5459 3.71973C25.9105 3.52832 26.3434 3.44401 26.8447 3.4668C27.3506 3.48047 27.7516 3.61263 28.0479 3.86328C28.3486 4.10938 28.5583 4.43294 28.6768 4.83398C28.7998 5.23047 28.8477 5.6543 28.8203 6.10547L28.0957 6.09863C28.1185 5.78418 28.0957 5.4834 28.0273 5.19629C27.959 4.90918 27.8268 4.6722 27.6309 4.48535C27.4395 4.29395 27.1615 4.19141 26.7969 4.17773C26.4049 4.15951 26.0723 4.22786 25.7988 4.38281C25.5254 4.5332 25.2998 4.74284 25.1221 5.01172C24.9489 5.27604 24.8122 5.57227 24.7119 5.90039C24.6117 6.22396 24.541 6.5498 24.5 6.87793L24.3906 7.72559C24.3587 8.01725 24.3428 8.32031 24.3428 8.63477C24.3473 8.94466 24.3883 9.23405 24.4658 9.50293C24.5479 9.77181 24.6914 9.99056 24.8965 10.1592C25.1061 10.3278 25.3955 10.4189 25.7646 10.4326ZM31.6572 3.60352L30.3721 11H29.6201L30.9053 3.60352H31.6572ZM31.1582 1.47754C31.1719 1.30892 31.2243 1.18132 31.3154 1.09473C31.4111 1.00358 31.5342 0.9375 31.6846 0.896484C31.8395 0.928385 31.958 0.989909 32.04 1.08105C32.1266 1.16764 32.1631 1.29753 32.1494 1.4707C32.1357 1.63477 32.0811 1.76009 31.9854 1.84668C31.8942 1.93327 31.7734 1.99251 31.623 2.02441C31.4727 1.99707 31.3542 1.9401 31.2676 1.85352C31.1855 1.76693 31.1491 1.6416 31.1582 1.47754ZM32.7373 7.68457L32.8262 6.92578C32.8854 6.4974 32.9902 6.07585 33.1406 5.66113C33.291 5.24642 33.4938 4.87044 33.749 4.5332C34.0042 4.19141 34.3164 3.92253 34.6855 3.72656C35.0547 3.5306 35.4808 3.44173 35.9639 3.45996C36.4378 3.47363 36.8229 3.58757 37.1191 3.80176C37.4154 4.01139 37.641 4.28711 37.7959 4.62891C37.9508 4.9707 38.0488 5.33984 38.0898 5.73633C38.1354 6.13281 38.1354 6.52702 38.0898 6.91895L37.9941 7.68457C37.9349 8.1084 37.8278 8.52995 37.6729 8.94922C37.5225 9.36393 37.3197 9.73991 37.0645 10.0771C36.8092 10.4144 36.4971 10.681 36.1279 10.877C35.7633 11.0729 35.335 11.1641 34.8428 11.1504C34.3734 11.1367 33.9906 11.0228 33.6943 10.8086C33.3981 10.5944 33.1725 10.3164 33.0176 9.97461C32.8672 9.63281 32.7692 9.26367 32.7236 8.86719C32.6826 8.4707 32.6872 8.0765 32.7373 7.68457ZM33.5918 6.91895L33.4893 7.70508C33.4619 7.97396 33.4528 8.26562 33.4619 8.58008C33.4756 8.88997 33.528 9.18392 33.6191 9.46191C33.7103 9.73535 33.8584 9.96322 34.0635 10.1455C34.2686 10.3232 34.5465 10.4189 34.8975 10.4326C35.2803 10.4508 35.6107 10.3779 35.8887 10.2139C36.1667 10.0498 36.3968 9.83105 36.5791 9.55762C36.7614 9.28418 36.9049 8.9834 37.0098 8.65527C37.1191 8.32715 37.1943 8.00358 37.2354 7.68457L37.3379 6.91211C37.3698 6.63867 37.3766 6.34928 37.3584 6.04395C37.3447 5.73405 37.2923 5.4401 37.2012 5.16211C37.11 4.87956 36.9596 4.64714 36.75 4.46484C36.5449 4.28255 36.2669 4.18457 35.916 4.1709C35.5423 4.15723 35.2188 4.23242 34.9453 4.39648C34.6764 4.56055 34.4463 4.78158 34.2549 5.05957C34.068 5.33757 33.9199 5.63835 33.8105 5.96191C33.7012 6.28548 33.6283 6.60449 33.5918 6.91895ZM40.8447 5.17578L39.8398 11H39.0811L40.3662 3.60352H41.0908L40.8447 5.17578ZM40.3936 6.84375L40.127 6.67285C40.1862 6.31283 40.2865 5.94368 40.4277 5.56543C40.569 5.18717 40.7513 4.83626 40.9746 4.5127C41.2025 4.18913 41.4782 3.93164 41.8018 3.74023C42.1299 3.54427 42.5081 3.45085 42.9365 3.45996C43.3102 3.46908 43.6087 3.55794 43.832 3.72656C44.0599 3.89518 44.224 4.11393 44.3242 4.38281C44.429 4.64714 44.4906 4.93652 44.5088 5.25098C44.527 5.56543 44.5179 5.87533 44.4814 6.18066L43.6816 11H42.9297L43.7363 6.16016C43.7637 5.8776 43.766 5.58366 43.7432 5.27832C43.7204 4.97298 43.6315 4.71549 43.4766 4.50586C43.3262 4.29622 43.0664 4.18457 42.6973 4.1709C42.3646 4.16634 42.0661 4.24837 41.8018 4.41699C41.542 4.58561 41.3164 4.80892 41.125 5.08691C40.9382 5.36035 40.7832 5.65202 40.6602 5.96191C40.5417 6.27181 40.4528 6.56576 40.3936 6.84375ZM51.5703 1.04688L49.8408 11H49.0615L50.791 1.04688H51.5703ZM53.8467 5.17578L52.8418 11H52.083L53.3682 3.60352H54.0928L53.8467 5.17578ZM53.3955 6.84375L53.1289 6.67285C53.1882 6.31283 53.2884 5.94368 53.4297 5.56543C53.571 5.18717 53.7533 4.83626 53.9766 4.5127C54.2044 4.18913 54.4801 3.93164 54.8037 3.74023C55.1318 3.54427 55.5101 3.45085 55.9385 3.45996C56.3122 3.46908 56.6107 3.55794 56.834 3.72656C57.0618 3.89518 57.2259 4.11393 57.3262 4.38281C57.431 4.64714 57.4925 4.93652 57.5107 5.25098C57.529 5.56543 57.5199 5.87533 57.4834 6.18066L56.6836 11H55.9316L56.7383 6.16016C56.7656 5.8776 56.7679 5.58366 56.7451 5.27832C56.7223 4.97298 56.6335 4.71549 56.4785 4.50586C56.3281 4.29622 56.0684 4.18457 55.6992 4.1709C55.3665 4.16634 55.068 4.24837 54.8037 4.41699C54.5439 4.58561 54.3184 4.80892 54.127 5.08691C53.9401 5.36035 53.7852 5.65202 53.6621 5.96191C53.5436 6.27181 53.4548 6.56576 53.3955 6.84375ZM62.2686 3.60352L62.1455 4.28711H59.0625L59.1855 3.60352H62.2686ZM60.6143 1.70996H61.373L60.1084 9.20898C60.0947 9.35482 60.0879 9.51888 60.0879 9.70117C60.0879 9.87891 60.1243 10.0361 60.1973 10.1729C60.2702 10.305 60.4069 10.3734 60.6074 10.3779C60.6986 10.3825 60.7874 10.3779 60.874 10.3643C60.9652 10.3506 61.054 10.3369 61.1406 10.3232L61.0996 11.0273C60.9811 11.0592 60.8649 11.082 60.751 11.0957C60.637 11.1139 60.5208 11.123 60.4023 11.123C60.0605 11.1185 59.8099 11.0114 59.6504 10.8018C59.4954 10.5921 59.3997 10.3392 59.3633 10.043C59.3314 9.74674 59.3291 9.46191 59.3564 9.18848L60.6143 1.70996ZM65.0234 11.1436C64.5495 11.1344 64.1576 11.0319 63.8477 10.8359C63.5423 10.64 63.3076 10.3825 63.1436 10.0635C62.9795 9.73991 62.8724 9.38216 62.8223 8.99023C62.7721 8.59375 62.7699 8.19499 62.8154 7.79395L62.918 6.93262C62.9727 6.51335 63.0752 6.09635 63.2256 5.68164C63.3805 5.26237 63.5811 4.88184 63.8271 4.54004C64.0778 4.19824 64.3877 3.92936 64.7568 3.7334C65.126 3.53288 65.5544 3.44401 66.042 3.4668C66.4977 3.48047 66.8646 3.58529 67.1426 3.78125C67.4206 3.97721 67.6234 4.23242 67.751 4.54688C67.8831 4.85677 67.9629 5.20312 67.9902 5.58594C68.0176 5.96875 68.0085 6.34928 67.9629 6.72754L67.874 7.36328H63.3076L63.4307 6.65234L67.2178 6.64551L67.252 6.44727C67.293 6.11914 67.2907 5.7819 67.2451 5.43555C67.1995 5.08919 67.0811 4.79753 66.8896 4.56055C66.7028 4.32357 66.4043 4.19368 65.9941 4.1709C65.6022 4.15723 65.2673 4.23014 64.9893 4.38965C64.7113 4.54915 64.4834 4.76562 64.3057 5.03906C64.1325 5.3125 63.9935 5.61784 63.8887 5.95508C63.7884 6.28776 63.7178 6.61361 63.6768 6.93262L63.5742 7.79395C63.5423 8.08561 63.5355 8.38639 63.5537 8.69629C63.5765 9.00163 63.638 9.2819 63.7383 9.53711C63.8431 9.79232 64.0026 10.002 64.2168 10.166C64.4355 10.3255 64.7272 10.4098 65.0918 10.4189C65.4564 10.4326 65.7868 10.3688 66.083 10.2275C66.3838 10.0863 66.6641 9.8903 66.9238 9.63965L67.2725 10.1523C67.0856 10.3848 66.8714 10.5739 66.6299 10.7197C66.3929 10.8656 66.1377 10.9727 65.8643 11.041C65.5954 11.1139 65.3151 11.1481 65.0234 11.1436ZM74.04 3.60352H74.7441L73.4521 11.1709C73.3792 11.6995 73.2311 12.1781 73.0078 12.6064C72.7845 13.0348 72.4769 13.3698 72.085 13.6113C71.6976 13.8529 71.2122 13.9668 70.6289 13.9531C70.3691 13.9395 70.1139 13.8893 69.8633 13.8027C69.6126 13.7207 69.3802 13.6022 69.166 13.4473C68.9518 13.2969 68.7673 13.1146 68.6123 12.9004L69.0225 12.374C69.2139 12.6292 69.4417 12.8343 69.7061 12.9893C69.9749 13.1442 70.2757 13.2285 70.6084 13.2422C71.0413 13.2604 71.4014 13.1829 71.6885 13.0098C71.9801 12.8366 72.2057 12.5928 72.3652 12.2783C72.5293 11.9639 72.6387 11.6107 72.6934 11.2188L73.7051 5.2168L74.04 3.60352ZM69.1387 7.65039L69.2275 6.97363C69.2868 6.55892 69.3757 6.14193 69.4941 5.72266C69.6126 5.30339 69.779 4.92057 69.9932 4.57422C70.2119 4.22331 70.4922 3.94531 70.834 3.74023C71.1758 3.53516 71.5928 3.44173 72.085 3.45996C72.4541 3.47819 72.7617 3.57161 73.0078 3.74023C73.2585 3.9043 73.459 4.12533 73.6094 4.40332C73.7643 4.67676 73.8691 4.97526 73.9238 5.29883C73.9831 5.6224 74.0059 5.94141 73.9922 6.25586L73.6572 8.46387C73.5934 8.80566 73.4886 9.14062 73.3428 9.46875C73.1969 9.79232 73.0124 10.0817 72.7891 10.3369C72.5658 10.5921 72.2992 10.7949 71.9893 10.9453C71.6839 11.0957 71.3421 11.1641 70.9639 11.1504C70.499 11.1367 70.1344 11.0182 69.8701 10.7949C69.6058 10.5716 69.4144 10.2799 69.2959 9.91992C69.1774 9.5599 69.1113 9.18164 69.0977 8.78516C69.0885 8.38411 69.1022 8.00586 69.1387 7.65039ZM69.9863 6.95996L69.9043 7.66406C69.8724 7.92839 69.8519 8.21777 69.8428 8.53223C69.8382 8.84668 69.8701 9.14518 69.9385 9.42773C70.0068 9.71029 70.1344 9.94499 70.3213 10.1318C70.5127 10.3141 70.793 10.4076 71.1621 10.4121C71.5039 10.4303 71.8206 10.3597 72.1123 10.2002C72.4085 10.0361 72.6592 9.81966 72.8643 9.55078C73.0693 9.27734 73.2174 8.97884 73.3086 8.65527L73.7188 6.1123C73.7279 5.87077 73.7005 5.64062 73.6367 5.42188C73.5729 5.19857 73.4749 4.99577 73.3428 4.81348C73.2152 4.63118 73.0534 4.48307 72.8574 4.36914C72.666 4.25521 72.445 4.19596 72.1943 4.19141C71.807 4.16862 71.4811 4.24154 71.2168 4.41016C70.9525 4.57422 70.736 4.79525 70.5674 5.07324C70.4033 5.34668 70.2757 5.64974 70.1846 5.98242C70.0934 6.31055 70.0273 6.63639 69.9863 6.95996ZM77.2529 4.81348L76.1797 11H75.4209L76.7061 3.60352H77.4443L77.2529 4.81348ZM79.5361 3.54883L79.4268 4.30078C79.3447 4.28711 79.265 4.27572 79.1875 4.2666C79.1146 4.25293 79.0417 4.24609 78.9688 4.24609C78.6224 4.23698 78.3262 4.3099 78.0801 4.46484C77.834 4.61979 77.6266 4.82487 77.458 5.08008C77.2894 5.33073 77.1504 5.60645 77.041 5.90723C76.9316 6.20345 76.8428 6.49056 76.7744 6.76855L76.4941 6.88477C76.5534 6.53841 76.6354 6.16471 76.7402 5.76367C76.8496 5.36263 77 4.9821 77.1914 4.62207C77.3828 4.26204 77.6289 3.97266 77.9297 3.75391C78.235 3.5306 78.611 3.42806 79.0576 3.44629C79.1396 3.44629 79.2194 3.45768 79.2969 3.48047C79.3789 3.4987 79.4587 3.52148 79.5361 3.54883ZM83.1523 9.67383L83.8018 5.62695C83.8291 5.33073 83.804 5.07324 83.7266 4.85449C83.6536 4.63574 83.5215 4.4694 83.3301 4.35547C83.1387 4.23698 82.8857 4.17546 82.5713 4.1709C82.2705 4.16178 81.9948 4.21875 81.7441 4.3418C81.498 4.46484 81.2952 4.63802 81.1357 4.86133C80.9762 5.08008 80.8669 5.33984 80.8076 5.64062H80.0625C80.1035 5.31706 80.1992 5.02083 80.3496 4.75195C80.5046 4.47852 80.7005 4.24609 80.9375 4.05469C81.1745 3.85872 81.4388 3.70833 81.7305 3.60352C82.0221 3.4987 82.332 3.44857 82.6602 3.45312C83.1113 3.46224 83.4827 3.55794 83.7744 3.74023C84.0706 3.92253 84.2848 4.17773 84.417 4.50586C84.5492 4.83398 84.5947 5.21908 84.5537 5.66113L83.9385 9.44141C83.8975 9.69661 83.877 9.94271 83.877 10.1797C83.877 10.4167 83.8792 10.6605 83.8838 10.9111L83.877 11H83.0977C83.0794 10.7767 83.0749 10.5557 83.084 10.3369C83.0977 10.1182 83.1204 9.89714 83.1523 9.67383ZM83.8359 6.67969L83.7402 7.3291L82.4961 7.31543C82.2181 7.31999 81.9424 7.35417 81.6689 7.41797C81.4001 7.47721 81.1517 7.5752 80.9238 7.71191C80.7005 7.84863 80.516 8.02865 80.3701 8.25195C80.2243 8.4707 80.1354 8.73275 80.1035 9.03809C80.0762 9.29785 80.0944 9.53027 80.1582 9.73535C80.222 9.94043 80.3359 10.1022 80.5 10.2207C80.6641 10.3392 80.8828 10.4007 81.1562 10.4053C81.5117 10.4098 81.833 10.3438 82.1201 10.207C82.4118 10.0658 82.667 9.87207 82.8857 9.62598C83.1045 9.37988 83.2777 9.10189 83.4053 8.79199L83.5488 9.25684C83.4531 9.52572 83.3255 9.77637 83.166 10.0088C83.0065 10.2367 82.8151 10.4395 82.5918 10.6172C82.373 10.7904 82.1315 10.9225 81.8672 11.0137C81.6074 11.1094 81.3317 11.1572 81.04 11.1572C80.6344 11.1527 80.3018 11.0592 80.042 10.877C79.7822 10.6901 79.5908 10.444 79.4678 10.1387C79.3493 9.82878 79.3037 9.48242 79.3311 9.09961C79.3584 8.68945 79.4609 8.33398 79.6387 8.0332C79.8164 7.72786 80.0488 7.47493 80.3359 7.27441C80.623 7.07389 80.9443 6.9235 81.2998 6.82324C81.6553 6.72298 82.0244 6.67285 82.4072 6.67285L83.8359 6.67969ZM88.3203 0.5L86.4951 11H85.7432L87.5684 0.5H88.3203Z" fill="#494747"/>
</svg>
